<svg width="15" height="11" viewBox="0 0 15 11" fill="none" xmlns="http://www.w3.org/2000/svg">
<path d="M0.21875 10.5938C0.828125 10.5885 1.22396 10.4818 1.40625 10.2734C1.58854 10.0599 1.67969 9.74219 1.67969 9.32031V1.72656C1.67969 1.28906 1.57552 1.0026 1.36719 0.867188C1.15885 0.726562 0.789062 0.635417 0.257812 0.59375V0.1875H4.28906L7.4375 7.59375H7.57031L10.7031 0.1875H14.7344V0.59375C14.1927 0.635417 13.8229 0.736979 13.625 0.898438C13.4271 1.05469 13.3281 1.44271 13.3281 2.0625V9.13281C13.3281 9.72135 13.4271 10.1068 13.625 10.2891C13.8229 10.4714 14.1927 10.5729 14.7344 10.5938V11H9.42188V10.5938C9.89583 10.5781 10.2526 10.5 10.4922 10.3594C10.7318 10.2135 10.8516 9.89844 10.8516 9.41406V1.59375H10.7344L6.8125 11H6.38281L2.42188 1.78125H2.35156V9.02344C2.35156 9.55469 2.45052 9.94271 2.64844 10.1875C2.84635 10.4323 3.28385 10.5677 3.96094 10.5938V11H0.21875V10.5938Z" fill="#C4C4C4"/>
</svg>
