<svg width="30" height="31" viewBox="0 0 30 31" fill="none" xmlns="http://www.w3.org/2000/svg">
<g filter="url(#filter0_d)">
<path d="M20 2H10C7.23858 2 5 4.23858 5 7V17C5 19.7614 7.23858 22 10 22H20C22.7614 22 25 19.7614 25 17V7C25 4.23858 22.7614 2 20 2Z" stroke="black" stroke-opacity="0.6" stroke-width="2" stroke-linecap="round" stroke-linejoin="round"/>
<path d="M19 11.37C19.1234 12.2022 18.9812 13.0522 18.5937 13.799C18.2062 14.5458 17.5931 15.1514 16.8416 15.5296C16.0901 15.9079 15.2384 16.0396 14.4077 15.9059C13.5771 15.7722 12.8097 15.38 12.2148 14.7851C11.6199 14.1902 11.2277 13.4228 11.094 12.5922C10.9604 11.7615 11.092 10.9099 11.4703 10.1583C11.8485 9.40682 12.4541 8.79371 13.2009 8.40621C13.9477 8.01871 14.7977 7.87655 15.63 7.99997C16.4789 8.12585 17.2648 8.52143 17.8716 9.12827C18.4785 9.73511 18.8741 10.521 19 11.37Z" stroke="black" stroke-opacity="0.6" stroke-width="2" stroke-linecap="round" stroke-linejoin="round"/>
<path d="M20.5 6.5H20.51" stroke="black" stroke-opacity="0.6" stroke-width="2" stroke-linecap="round" stroke-linejoin="round"/>
</g>
<defs>
<filter id="filter0_d" x="-1" y="0" width="32" height="32" filterUnits="userSpaceOnUse" color-interpolation-filters="sRGB">
<feFlood flood-opacity="0" result="BackgroundImageFix"/>
<feColorMatrix in="SourceAlpha" type="matrix" values="0 0 0 0 0 0 0 0 0 0 0 0 0 0 0 0 0 0 127 0"/>
<feOffset dy="4"/>
<feGaussianBlur stdDeviation="2"/>
<feColorMatrix type="matrix" values="0 0 0 0 0 0 0 0 0 0 0 0 0 0 0 0 0 0 0.25 0"/>
<feBlend mode="normal" in2="BackgroundImageFix" result="effect1_dropShadow"/>
<feBlend mode="normal" in="SourceGraphic" in2="effect1_dropShadow" result="shape"/>
</filter>
</defs>
</svg>
