<svg width="23" height="17" viewBox="0 0 23 17" fill="none" xmlns="http://www.w3.org/2000/svg">
<path d="M0.328125 16.3906C1.24219 16.3828 1.83594 16.2227 2.10938 15.9102C2.38281 15.5898 2.51953 15.1133 2.51953 14.4805V3.08984C2.51953 2.43359 2.36328 2.00391 2.05078 1.80078C1.73828 1.58984 1.18359 1.45312 0.386719 1.39062V0.78125H6.43359L11.1562 11.8906H11.3555L16.0547 0.78125H22.1016V1.39062C21.2891 1.45312 20.7344 1.60547 20.4375 1.84766C20.1406 2.08203 19.9922 2.66406 19.9922 3.59375V14.1992C19.9922 15.082 20.1406 15.6602 20.4375 15.9336C20.7344 16.207 21.2891 16.3594 22.1016 16.3906V17H14.1328V16.3906C14.8438 16.3672 15.3789 16.25 15.7383 16.0391C16.0977 15.8203 16.2773 15.3477 16.2773 14.6211V2.89062H16.1016L10.2188 17H9.57422L3.63281 3.17188H3.52734V14.0352C3.52734 14.832 3.67578 15.4141 3.97266 15.7812C4.26953 16.1484 4.92578 16.3516 5.94141 16.3906V17H0.328125V16.3906Z" fill="black" fill-opacity="0.6"/>
</svg>
